<svg xmlns="http://www.w3.org/2000/svg" viewBox="0 0 99.85 120.07"><defs><style>.cls-1{fill:gold;}.cls-2{fill:#fefefe;}</style></defs><title>logo_fond_noir</title><g id="Calque_2" data-name="Calque 2"><g id="Calque_1-2" data-name="Calque 1"><path class="cls-1" d="M50,15.3,17.4,115.16V115A9.55,9.55,0,0,1,15,118.65a5.45,5.45,0,0,1-3.79,1.42,11.57,11.57,0,0,1-2.3-.23c-.74-.15-1.51-.32-2.3-.52h.15q-8.48-2.67-6.25-9.51l33.88-103a8.76,8.76,0,0,1,2.61-4A7.82,7.82,0,0,1,41.33.89C43,.59,44.65.37,46.23.22S49.06,0,50,0s2.13.07,3.71.22,3.22.32,4.91.52A7.59,7.59,0,0,1,62.65,3,16.3,16.3,0,0,1,65.7,6.83Q74,32.4,82.56,58.32t16.87,51.49q2.08,6.84-6.24,9.51l-2.16.52a9.45,9.45,0,0,1-2.15.23,5.82,5.82,0,0,1-3.79-1.42A7.74,7.74,0,0,1,82.64,115v.15ZM61.09,83.06A11.42,11.42,0,0,1,49.65,94.51a10.8,10.8,0,0,1-8-3.35,11.68,11.68,0,0,1,0-16.19,10.8,10.8,0,0,1,8-3.35A11.42,11.42,0,0,1,61.09,83.06Z"/><polygon class="cls-2" points="35.91 77.77 44.27 69.42 55.56 69.42 63.91 77.77 63.91 89.07 56.05 96.93 44.76 96.93 35.91 89.07 35.91 77.77"/></g></g></svg>