<svg xmlns="http://www.w3.org/2000/svg" viewBox="0 0 1132.43 6.47"><defs><style>.cls-1{fill:#fefefe;}</style></defs><title>trait</title><g id="Calque_2" data-name="Calque 2"><g id="Calque_3" data-name="Calque 3"><path class="cls-1" d="M1132.16,4.57c.59-.18.26-.57-1.38-.49l-1.17.66Z"/><path class="cls-1" d="M1121.11,3.34c-1.93.32-4.16.88-2.91,1.49,1.92-.63,2.38-.37,4.44-1.12,1.64-.08,2.87.21,2.59.45.58-.17,2.55.15,3.43-.27a21,21,0,0,0-7.67-.11C1120.38,3.64,1121,3.46,1121.11,3.34Z"/><path class="cls-1" d="M960.58,2.31l1,.08A7.19,7.19,0,0,0,960.58,2.31Z"/><path class="cls-1" d="M861.11,1.94c.76,0,1.08-.08,1.12-.14C861.52,1.85,861,1.89,861.11,1.94Z"/><path class="cls-1" d="M844.13,1.22l1,0A3.18,3.18,0,0,0,844.13,1.22Z"/><path class="cls-1" d="M960.58,2.31l-2.66-.21C957.74,2.32,959.28,2.26,960.58,2.31Z"/><path class="cls-1" d="M1099,4.94a12.73,12.73,0,0,0,1.45-.18c-.46,0-.9.06-1.36.07A.29.29,0,0,1,1099,4.94Z"/><path class="cls-1" d="M1004.43,1.77h.8a4.46,4.46,0,0,0,.67-.27Z"/><path class="cls-1" d="M1038.07,1.67c-.76,0-1,.54-1.31.78a4.07,4.07,0,0,1,1.66-.38C1038.43,2,1038.33,1.83,1038.07,1.67Z"/><path class="cls-1" d="M1091.43,2.66l1-.08Z"/><path class="cls-1" d="M980.34,1.65a.64.64,0,0,0-.31-.2C980,1.52,980.15,1.59,980.34,1.65Z"/><path class="cls-1" d="M39.16,5.87s0-.06,0-.1C39,5.83,38.9,5.87,39.16,5.87Z"/><path class="cls-1" d="M.16,3.09l.54,0a.7.7,0,0,0,.12-.32Z"/><path class="cls-1" d="M813.05.49l.14,0C814,.44,813.55.45,813.05.49Z"/><path class="cls-1" d="M527.74.91c3.24.5-5.26.64-.39,1.2C526.9,1.89,531.77,1.24,527.74.91Z"/><path class="cls-1" d="M1098.1,4.86h-1.38C1097.35,4.89,1097.77,4.88,1098.1,4.86Z"/><path class="cls-1" d="M527.35,2.11h0l.5,0Z"/><path class="cls-1" d="M741.44.83a2.67,2.67,0,0,0,.73.25C742.15,1,742,1,741.44.83Z"/><path class="cls-1" d="M794.79,1.63l-1.32-.07C794,1.61,794.42,1.63,794.79,1.63Z"/><path class="cls-1" d="M713.75,1.63a9.94,9.94,0,0,0-2,0l.3.07A5,5,0,0,1,713.75,1.63Z"/><path class="cls-1" d="M684.91,1.63l.54.11.91,0Z"/><path class="cls-1" d="M126.78,5.6a5,5,0,0,1-1.33-.5C125.89,5.5,121.66,5.64,126.78,5.6Z"/><path class="cls-1" d="M1099,4.62a1.47,1.47,0,0,1-.86.24q.5,0,1,0C1099.14,4.75,1099.16,4.67,1099,4.62Z"/><path class="cls-1" d="M712.57,6.06,708,6C709.27,6,710.94,6.06,712.57,6.06Z"/><path class="cls-1" d="M333.61,5.52l-1.05.07A4.12,4.12,0,0,0,333.61,5.52Z"/><path class="cls-1" d="M694.4,6.06a17.6,17.6,0,0,0-2.58-.39,2.63,2.63,0,0,0-.53.15Z"/><path class="cls-1" d="M125.44,5.09h0Z"/><path class="cls-1" d="M95.27,6.43c4.36,0,2-.72,3-1.15,5.2-.21,2.41.54,4.18.92,3.25-.19,5.75-.87,8.17-.84.18.12.65.16.1.32,3.44-.59,10.21,0,14.22-.77a1.41,1.41,0,0,1,.52.18c-.65-.37-.75-.74-.62-1,2,0,3.64-.47,4.37,0a4.08,4.08,0,0,0-1.86.33l2-.21c1.85.69-2.8.24-2.8.75,4-.23,8.66-.8,11.72-.6.64.68-7.16.23-3.07.83l-4.74-.26c3.62,1.07-2.88-.08.45,1.07,6.23.2,7-.34,13.19-.15,1.41-.37-.46-.55.94-.93,8.85-.68,7,1.71,13.47.8,1.68-.45,2.33-1.31,7-.86l-1.58.77c6,.08,3.45-1.1,9.78-.59-1.13.31-4.75.26-3.84.35,4.1.61,2.9-.44,6-.44l.65.68c6.43-.1,13.52-.59,20.64-.72-.4.2-1.62.42.05.62,9-.33,19.17.09,27.84.49l3.3-.59c.77,0,1.43.27.6.38,3.38.23.17-.37,1.8-.6,1.92,0,2.53.34,1.32.51,6-.49,17-1.07,23.25-.44l-1.23.17c4.89.24,5.52-1.2,10.05-.65l-.87.1c10.61.26,22.34-.28,30.43.61,1.54-.85,10.5.37,11.18-.81,6.06.59,4.33.8,12.86,1.19,2.27.06,3.39-.73,6.21-.86l.07.62L327.88,5l2,.74,2.64-.16c-1.05,0-2.24-.28-2.08-.45,4.13-.28,10.06.43,10.17.74l9.76-.52c-.22.25-1.85.33-3.14.49,5.21-.63.94.65,5.72.07-.64-.14.35-.36.45-.49a80.8,80.8,0,0,0,11.81.22l-.77.43c7.25.11,15.27-.21,23.4-.2-2.91-.2-2.24-.93.14-1l1,.65c1.54-.41-2.49-.25.67-.74,3,.07,2,.74.3,1l3.69-.23c.22.2-.65.3-.87.55,1.51-.4,6.37.65,8.55,0l.21.2C409.65,6.21,413.33,6,420,6c.13-.56,2.72-.43,4.69-.89,4.87.18,10.26.62,16.13.58,4.11-.28,1.2-.48,3.05-.82.3.52,6.16.47,3.12.84,7-.09,9-.11,17.88-.52-1-.21-2.05-.3-1.49-.48,1.62-.08,3.68.22,3.44.46l-.42.06c10-.77,23,1.49,31,.42l-.45.06,8.25-.56c3.79.09-2.28.38.53.7,8.89-.85,14.05.12,21.38-.44,5.67,1.51,20.12-.11,27.77.85l-.44-.35c2-.35,2.39.2,3.85.28-.21-.27-2.15-.32-.92-.51,16.76-.43,34.59.52,51.77.84,6.28.1,3.56-1.84,11.48-1l-2.25.66c12.68-.79,25.93,0,38.34-.65a5.26,5.26,0,0,1-2,.35c2.62.48,9.7,0,9.74-.37,1.93,0,.45.36,1.64.56,2.63.28,6.6-.61,8-.14.24.08-.74.16-1.22.2,1.71-.24,8,.06,6.34-.5,4.66.27,8.91-.25,12.63.08,2.42-.62,8,.3,8.74-.57-.33.9,8.17.72,11.12.3-1,.27,2.56.28,1.4.66,3.37,0,6.45-.18,5.86-.64,6.19,1.08,12.45-.88,15.93.51,10-.48,19.23-.81,28.21-1-.32.91-9.93.09-9.54,1C762.06,5.57,767,4.8,775.43,5c2.19.13-1.25.39-2,.55,8.51-.37,16.46.08,24-.41a6,6,0,0,1-1.61.24c1.49,0,3.47.14,3.3-.27l-1.45.11c-2.38-.6,5.93-1.25,6.2-1.56-2.54,1.18,7.48.3,3.45,1.78,1-.08,2.22-.27,2-.55,1.46.08,1.92.25.44.56,5.35-.23,3.45-.66,8.3-.65,0,.2-1,.27-1.5.51a40,40,0,0,1,9-.61c-.24.12.23.27-1,.27,7-.06,12-1,19.7-.66-2.28.87,2.62.29,3,1l4.15-.23-1.66-.36c3.63,0,6.84-.53,10-.29l-2.7.31,6.81-.14-3.85-.28c3.68-.39-.4-1,4.44-.74-1,.08,3.64,0,5.53.45h0a28.17,28.17,0,0,1,6.33-.3c.7.24-.56.82-.11,1,1.78-.62,8.51-.17,10.76-.84-.75.16-.79.55-.54.63l1.49-.5c1.68.16,1.93.24,1.65.55,5.07.09-1.61-.95,4.4-.54a9.38,9.38,0,0,1-1.23.19c6,.22,11.66-.32,17.21-.07,1.64.75-4.85.19-3,.82,8-.14,16.55-.9,24.29-.72l-1.44-.09c1.07-1.06,5.76.53,9.68,0-1,.08-1.26.59-1,.47,5.3.17,10.83-.26,18.86-.6l-1,.28c3.12.24,8.22.14,11.59.26,1-.27,2.93-.23,1.76-.62,10.4,1.55,19.84-.84,29.07.46-1.1,0-2.63.24-1.75.24l7.86-.25c-.62-.47-1-.28-2.68-.64a23.87,23.87,0,0,1,5.16-.49c-3.54.31,0,.74,1.56,1-.26-.14.26-.3.13-.44,4.11.82.69-.93,6.3-.38l-.3.24c2.1-.12,4-.44,6.3-.37.93.53-2.24.25-2.38.69,3.18,0,6.27-1,9.15-.48-1.35.15-3.3.15-4.65.3a25.84,25.84,0,0,0,5.83.57l-.23,0,5.38.28-1.37-.17c4-1.39,8.1-.25,13.45-1.16-5.2.86-.86.5-1.26,1.1,1.37.17,3.45.36,2.86.53,2.53-.49,4.23.38,7.8-.33.16.19,2.71,0,2.14.51,3.29-.15-.78-.34-.5-.58,5.07-.67,11.92.8,19.22-.11,6.3-.38,7.46-1,13.3-1.36,2,.31-1.61.71-1.61.71a48.11,48.11,0,0,0,8.57,0c-.61.17,0,.31.93.53,2.4-.05,1.61-.71,4.78-.42a11,11,0,0,1-2.4.78c2.83-.18,5.63-.54,8.56-.72.78.34-1.77.52-2.8.74,3.3-.15,8.54-.31,9.56-.84l-2.11-.2c1.2,0,.61.47-.27.56-2.83.42-4.08-.18-4.24-.38l2.09-.12c-2.14-1.15-8.39.18-12.6.11l1.76-.83-4.32.69c-.92-.22-1.54-.68.53-.8-3-.42-2.67.29-5.26-.17-.28-.07-.15-.11.11-.14l-2.94.25c.57-.18-.49-.59,1.32-.47-5.29-.48-8.53.62-10.52,0l.44-.05c-7.34.28-.71.61-6.21,1.33l-3.71-1.51-.72.61c-.76,0-2.25-.06-2-.31-2.81.42.48.27-1.15.66-3.65-.55-10,.26-10.87-.71-1.31.46,3.49.36-.4.68-1.11-1-4.5.18-7.83-.3,1-.54,4.18-.25.85-.74-2,.92-6.49-.2-9.29,0-.13.72-6.11.3-10.82.54.3-.24-8.86-.4-13.25-.66l.13-.12c-.84.73-5.37.59-8.66.75.13-.44.72-.62,2.51-.81h-3.1a14,14,0,0,1-3.7.44l.78-.54c-4.12,0-8.3.64-13.59.27-.3.52,4.21,1.43-1.39,1.77-.21-.27-.42-.75,1-.86A13.88,13.88,0,0,1,985.7,3l2.24-.47c-2.42-.2-1.27.39-3.2.35,0-.39-1.42-.28-1.15-.59a16.34,16.34,0,0,0,2.43,0,28.92,28.92,0,0,1-5.68-.6c.19.22,0,.53-1.59.58-4.12,0-1.41-.47-3.82-.68-1,.28-3.62,0-3.69.59a3.78,3.78,0,0,1-1.89-.44c-2.13.26-10,.07-7.56.7l.55,0-.35,0h0c-7,.58-14.51-.34-21.44-.09V2.19c-4.14.22-9.21.13-12.17.56-1.22,0-2.89-.37-2.36-.6a44.15,44.15,0,0,1-8.09,0c3.18-.34-1.1-.3,3.26-.25-4.11-.17-5-.48-9.45.05,1.5-.5-3.1-.63-5-.48l2.88.36c-2.2.07-4.12,0-6.07,0l1-.67c-8.41-.81-15.16,1.38-21.57,0-2.22.47,4.57.33,2.58.88-3.87-.09-7.9-1-9.11-1-5.3-.37-5,1-10.49.72.71.24,1.38.87-2.77,1.09-3.87-.08-4.76-1-2.31-1.18.93,0,1.38.05,1.34.13,1.25-.08,2.89-.18,1.36-.44l-.51.24c-1.92-.25-7.24-.22-6-.61-2.93.23-1.25.39.91.51-5-.34-7.76,0-12.87-.24.82.13,1.56.41.76.41-7.5-.3-3.31.45-8.39.55-2.88-.36,1-.86-4.07-.56-3.13-.24-.67-.63.58-.82-4.66.46-8.71-.3-11.37-.39l2.45-.19c-1.46.12-2.67.11-3.89.11l1.4.48C821.16.76,819.94.76,820,.56c-1.49.31,1.13.79-1.81,1.22-1.92-.24-5.85.26-6.52-.37,6.05.21-.66-.64,4.45-.74a27.46,27.46,0,0,1-3.63,0c-.22-.07.2-.13.59-.17-5.78-.56-2.65.72-8.64.7C805.17.84,803,.52,802,.6c2.41,0,1.15.59-1.06.86-3.84-.28-4.18.21-6.19.17l2.3.13c-.78.36-2.7.31-5.38.42-.23-.27,2.43-.19,1.48-.31-3,.62-6.72-.65-10.87-.22-1.92-.25-.18-.67-1.87-.83-4.65.46-5-.49-9.92-.11,1.41.48,1.66.36-1.78.82l8-.33-5.16.69c2.43,0,5.12-.3,6.57-.22-2.46.39-2.2.27-1,.67-3.32-.71-6.58.42-10.41-.07l.12-1.18c-5.77-.52-10.24.61-17.72.31l2.4.21c-1,.47-4.62.06-7,.25.22-.39-1.29-.54-2.33-.78.13.29-5.47,0-6.15.76l-3.34-.52c-6-.21-6.9,1.13-12.71,1,1.75-.43-.89-.71,3-1-1.93,0-3.68-.08-3.71.19-1.13-.24-5.38.53-7.16.16a7.77,7.77,0,0,1-3.26.55c-.24-.08,0-.19,0-.19,0,.19-3.41.26-1.51.7-6-1.23-16.69.09-21.89-1-4.24.14-9.33.26-13.18.29.25-.12,0-.2.74-.15-5.3-.37-3.25,1.13-9.29.72C660.64,2,666.93,2.25,665,2c-.84-1.3-7.28.18-11.34-.58l1-.08c-3.1-.44-7.57.5-12.63.4,0,0,.24-.11,0-.19-3.47.66-10,.88-14.91,1.06,1.52-.5,2.22-.27,1.29-.78-2.18.07.64.83-3.72,1-1.42-.28-4.57-.52-5-1.07l4.11,0c-2.11-.71-5.33,0-7.49-.1l.27-.31c-6.3.1-6.39.89-13.17.83l.7.23c-3.7.78-3.1-.43-6.8.15l-1.12-.79c-2.44.19-8.56.76-12.94.91,2.48-.59,7.61-.89,10.78-1.23-2.42,0-8.23.05-9.49.44a16.91,16.91,0,0,1,3.17-.14A58.91,58.91,0,0,1,576,2.61C576.89,1.08,563.46,2.22,560,1,551.41,1.6,543,.79,533.06.88c3.53,1.19-2.9,0-2.29,1.26a17.7,17.7,0,0,1-3.41,0l-7-.73c-1.67-.36,2.2-.27,2-.55C517.25.75,520.2.32,516.84,0c.69.44-1.76.63-4.66.46l4.08.56c-7.09.65-6.13-1-13.28-.38l2.26-.38c-3.67.22-13.53,0-17.13,1-.64-.14-1.5-.47.11-.56-8.76-.15-19.51,1-26.32.44l.66-.3c-1.63.09-2.84.56-4.89.26.1-.12.66-.3-.1-.32a38.64,38.64,0,0,1-6.51.35l1.85-.33c-8.55-.39-13.12.82-20.29,1,0-.88-6.71-1.16-10.07-1.31l.12-.12c-10-.11-16.91.73-26.13,1.07C390.82.48,377.15,1,368,.5c1.41.16-.22.68-1.86.77-2.16-.18-6,.61-5.62-.2l.77,0c-1.63-.79-6.07-.58-9.53-.6l-.57,1.05C342.08,0,327.4,2.11,322.45.73c-2.18.27-4.89.26-7.06.53l.12-.57c-6.06-.14-9.08-.22-16.57-.08l1.53-.4c-4.23,0-5.33,1.63-9.23,1.66L290.07,1C282.7,1,275.24.3,268,1.06c.12-.12.34-.36,1.53-.4-3.47,0-13.42-.57-12.16.59-.08-.76-7.6-.07-11.58.26l.62-.56a32.64,32.64,0,0,1-8.15,1.11c-1.12-.08-1-.45.5-.31-3.71-.29-2.89.53-7.38.23L233,1.63a15.88,15.88,0,0,0-5.6.56c-2.4.22-7.23-.14-7.79-.65a11.54,11.54,0,0,1-4.85.58c-.3-.19.52-.31.93-.37-6.38-.38-9.48.65-13.86.1-.09-.18-.38-.27-.74-.33,5.06,0,9.14,0,8.76.08,0-.51-4.09-.6-.84-1.31-3.28.39-8.89,1.23-12.88,1a2.53,2.53,0,0,1-.53-.18L196,1a14.59,14.59,0,0,0-2.52.09C192.23,1,191.43,1,190.21,1c-.48-.42-4.69-.23-6.73-.25.17.56-2.5.47,0,.94-.33,0,.38-.07,1.74-.09.31,0,.67,0,.87-.06l-.14.05,5.07,0a16.23,16.23,0,0,1-5.55.21c-1.05.37-2.2.74-2.85.91-2.79-.78-8.17-1.21-8.91-1.69-6.23.31-14.67.21-18.58,1.26a4.73,4.73,0,0,1-2.7-.47,25.74,25.74,0,0,0,2.79-.24c-3.54.27-10.49.11-11.33.85-4.46-.34,2.51-.68-3.62-.56l.82-.23c-12.05-1.18-19.6,1.89-33,.37a5.08,5.08,0,0,1,1.58.26c-15.24-.67-31.41.63-46.45-.43-4.27-.21-4.73.26-7.34.62L55,1.77l-4.46.7C44.2,3,39.57,1,31.56,2l1,.41c-2.87-.08-9.11.24-8.63-.23a3.72,3.72,0,0,1-2.07.21L21.81,2l-7.07.55c-5.47-.23.86-1.26-7.13-1.32-3,.12-8.46.92-7.35,1.13,1.2,0,3.07.2,3.16.52L.7,3.06C.21,4-1.88,4.94,4.79,5.6L9.43,5l1.5.45L7,5.51a13,13,0,0,0,5.2-.21,4.56,4.56,0,0,0,1.95.49l4.56-.89c.55.37-2,.73,1,.93,2.14-.41-2.05-.82,1.49-1.09,2.22.42,1.57.77,4.18.41.37.24-.19.39-1.22.5,2.32-.29,6.15-.13,7.35-.62,2.31.52,7.84-.14,7.61.74a37.5,37.5,0,0,1,6.23-.72c-3.9,1,8,.06,7,1.19,2.89-1,10.42-.42,15.53-1a3.72,3.72,0,0,1-1.29.18A54.3,54.3,0,0,1,72.14,6c.37-.78,4.85-1,7.26-1.44,3.53.75-2.14.92-1,1.65-.18-.64,6.12-.64,4.92-1.17,2.7.47,2.33.23,3.71.88.48-1,2.52-.17,4.75-.77,3.9.48,1,.92,5.29.62C99.08,6.08,95.27,6.43,95.27,6.43Zm101.94-1.7h0l-2.1,0Zm8.57,0c-1.05,0-2.34,0-3.72,0-.3-.19,0-.39.89-.38C202.48,4.45,204.5,4.56,205.78,4.72ZM187.66.83a4,4,0,0,1,2,.14c-.64,0-1.39,0-2.37.07l-.16.07A1.29,1.29,0,0,1,187.66.83Z"/><path class="cls-1" d="M185.22,1.57l-.56,0c.28,0,.54.09.81.12l.48-.17Z"/><path class="cls-1" d="M961.79,2.4h-.18a1.56,1.56,0,0,1,.38.08C961.87,2.44,961.87,2.42,961.79,2.4Z"/><polygon class="cls-1" points="324.07 5.8 324.06 5.66 323.31 5.78 324.07 5.8"/><path class="cls-1" d="M1009,4.33a1.78,1.78,0,0,0,.62.14A2.7,2.7,0,0,0,1009,4.33Z"/><path class="cls-1" d="M1029.36,4.46l2.88.2C1031,4.54,1030.08,4.49,1029.36,4.46Z"/><path class="cls-1" d="M1045,4.73a.61.61,0,0,0,.3-.24h0Z"/><path class="cls-1" d="M795.87,5.39c-.21,0-.42,0-.6,0C793.85,5.53,794.81,5.49,795.87,5.39Z"/><path class="cls-1" d="M870,4.08c-.79.1-1.56.2-2.39.27C869,4.39,870,4.4,870,4.08Z"/><path class="cls-1" d="M713.08,6.07h0Z"/><path class="cls-1" d="M864.19,4.34a22,22,0,0,0,3.44,0A30.36,30.36,0,0,0,864.19,4.34Z"/><path class="cls-1" d="M1113,5l.75,0s0-.07.09-.09Z"/><path class="cls-1" d="M1113.79,4.92l.84-.06A2.84,2.84,0,0,0,1113.79,4.92Z"/><path class="cls-1" d="M1116.39,4.71l-1.76.15A5.86,5.86,0,0,0,1116.39,4.71Z"/><path class="cls-1" d="M1092.2,4.73l-.24.2A.32.32,0,0,0,1092.2,4.73Z"/><path class="cls-1" d="M1085.9,4.79c1.5,0,3.77.43,5.87.31l.19-.17C1091,5.24,1087.33,4.44,1085.9,4.79Z"/><path class="cls-1" d="M1059.59,2.27l5.28.16c-.93-.22-2.14-.51.26-.56C1058.47,1.22,1066.51,2.36,1059.59,2.27Z"/><path class="cls-1" d="M1043.21,2c2.83-.1,0-.31.11-.44C1041.52,1.71,1041.09,1.76,1043.21,2Z"/><path class="cls-1" d="M924.84,2l.28-.51C922.93,1.51,925.1,1.64,924.84,2Z"/><polygon class="cls-1" points="902.21 4.59 904.34 4.91 905.35 4.44 902.21 4.59"/><polygon class="cls-1" points="888.84 0.95 889.8 0.88 886.15 1.06 888.84 0.95"/><path class="cls-1" d="M690,1.13l.66.63C692.18,1.65,692.49.94,690,1.13Z"/><path class="cls-1" d="M604.22,1.77a12.21,12.21,0,0,0-4.84-.2C601.31,1.61,603.24,1.86,604.22,1.77Z"/><polygon class="cls-1" points="346.83 0.75 348.56 0.54 345.31 0.71 346.83 0.75"/></g></g></svg>